<svg xmlns="http://www.w3.org/2000/svg" data-name="Layer 1" viewBox="0 0 64 80" fill="#ED403F" x="0px" y="0px"><title>cash, shop, business, market, e-commerce</title><path d="M31.5,34H34a1,1,0,0,0,0-2H33V31a1,1,0,0,0-2,0v1.05A2.5,2.5,0,0,0,31.5,37h1a.5.5,0,0,1,0,1H30a1,1,0,0,0,0,2h1v1a1,1,0,0,0,2,0V39.95A2.5,2.5,0,0,0,32.5,35h-1a.5.5,0,0,1,0-1Z"/><path d="M32,27a9,9,0,1,0,9,9A9,9,0,0,0,32,27Zm0,16a7,7,0,1,1,7-7A7,7,0,0,1,32,43Z"/><path d="M59,20H41.14L13.27,12a1,1,0,0,0-1.24.72L10.22,20H5a1,1,0,0,0-1,1V51a1,1,0,0,0,1,1H59a1,1,0,0,0,1-1V21A1,1,0,0,0,59,20ZM13.72,14.25,33.86,20H12.28ZM58,50H6V22H58Z"/><path d="M14,24a1,1,0,0,0-1,1,4,4,0,0,1-4,4,1,1,0,0,0-1,1V42a1,1,0,0,0,1,1,4,4,0,0,1,4,4,1,1,0,0,0,1,1H50a1,1,0,0,0,1-1,4,4,0,0,1,4-4,1,1,0,0,0,1-1V30a1,1,0,0,0-1-1,4,4,0,0,1-4-4,1,1,0,0,0-1-1Zm40,6.92V41.08A6,6,0,0,0,49.08,46H14.92A6,6,0,0,0,10,41.08V30.92A6,6,0,0,0,14.92,26H49.08A6,6,0,0,0,54,30.92Z"/><path d="M16,33a3,3,0,1,0,3,3A3,3,0,0,0,16,33Zm0,4a1,1,0,1,1,1-1A1,1,0,0,1,16,37Z"/><path d="M45,36a3,3,0,1,0,3-3A3,3,0,0,0,45,36Zm4,0a1,1,0,1,1-1-1A1,1,0,0,1,49,36Z"/></svg>