<svg xmlns="http://www.w3.org/2000/svg" viewBox="0 0 64 80" fill="#ED403F" x="0px" y="0px"><g data-name="programming-web-coding"><path d="M60,42H4V13.205A1.119,1.119,0,0,1,5,12H21V10H5a3.111,3.111,0,0,0-3,3.205V46.8A3.111,3.111,0,0,0,5,50H27v4H20a1,1,0,0,0-1,1v5H17v2H47V60H45V55a1,1,0,0,0-1-1H37V50H59a3.111,3.111,0,0,0,3-3.2V41H60ZM43,60H21V56H43Zm-8-6H29V50h6Zm24-6H5a1.119,1.119,0,0,1-1-1.2V44H60v2.8A1.119,1.119,0,0,1,59,48Z"/><rect x="55" y="45" width="2" height="2"/><rect x="26" y="5" width="2" height="2"/><rect x="30" y="5" width="2" height="2"/><rect x="34" y="5" width="2" height="2"/><rect x="6" y="14" width="4" height="2"/><rect x="12" y="14" width="2" height="2"/><rect x="16" y="14" width="4" height="2"/><rect x="6" y="24" width="2" height="2"/><rect x="8" y="18" width="2" height="2"/><rect x="12" y="18" width="4" height="2"/><rect x="18" y="18" width="2" height="2"/><rect x="10" y="24" width="4" height="2"/><path d="M53,21H50.478a9.266,9.266,0,0,0-.362-.873L51.9,18.343a1,1,0,0,0,0-1.414L49.071,14.1a1.029,1.029,0,0,0-1.414,0l-1.784,1.784A9.12,9.12,0,0,0,45,15.522V13a1,1,0,0,0-1-1H40a1,1,0,0,0-1,1v2.522a9.12,9.12,0,0,0-.873.363L36.343,14.1a1,1,0,0,0-1.414,0L32.1,16.929a1,1,0,0,0,0,1.414l1.783,1.784a9.266,9.266,0,0,0-.362.873H31a1,1,0,0,0-1,1v4a1,1,0,0,0,1,1h2.522a9.266,9.266,0,0,0,.362.873L32.1,29.657a1,1,0,0,0,0,1.414L34.929,33.9a1.029,1.029,0,0,0,1.414,0l1.784-1.784a9.12,9.12,0,0,0,.873.363V35a1,1,0,0,0,1,1h4a1,1,0,0,0,1-1V32.478a9.12,9.12,0,0,0,.873-.363L47.657,33.9a1,1,0,0,0,1.414,0L51.9,31.071a1,1,0,0,0,0-1.414l-1.783-1.784A9.266,9.266,0,0,0,50.478,27H53a1,1,0,0,0,1-1V22A1,1,0,0,0,53,21Zm-1,4H49.738a1,1,0,0,0-.968.75,7,7,0,0,1-.745,1.8,1,1,0,0,0,.154,1.216l1.6,1.6-1.414,1.414-1.6-1.6a1,1,0,0,0-1.216-.155,7,7,0,0,1-1.8.747,1,1,0,0,0-.75.967V34H41V31.738a1,1,0,0,0-.75-.967,7,7,0,0,1-1.8-.747,1,1,0,0,0-1.216.155l-1.6,1.6-1.414-1.414,1.6-1.6a1,1,0,0,0,.154-1.216,7,7,0,0,1-.745-1.8,1,1,0,0,0-.968-.75H32V23h2.262a1,1,0,0,0,.968-.75,7,7,0,0,1,.745-1.8,1,1,0,0,0-.154-1.216l-1.6-1.6,1.414-1.414,1.6,1.6a1,1,0,0,0,1.216.155,7,7,0,0,1,1.8-.747,1,1,0,0,0,.75-.967V14h2v2.262a1,1,0,0,0,.75.967,7,7,0,0,1,1.8.747,1.006,1.006,0,0,0,1.216-.155l1.6-1.6,1.414,1.414-1.6,1.6a1,1,0,0,0-.154,1.216,7,7,0,0,1,.745,1.8,1,1,0,0,0,.968.75H52Z"/><path d="M42,19a5,5,0,1,0,5,5A5.006,5.006,0,0,0,42,19Zm0,8a3,3,0,1,1,3-3A3,3,0,0,1,42,27Z"/><path d="M60,2H24a2,2,0,0,0-2,2V38a2,2,0,0,0,2,2H60a2,2,0,0,0,2-2V4A2,2,0,0,0,60,2ZM24,4H60V8H24Zm0,34V10H60V38Z"/><rect x="16" y="24" width="4" height="2"/><rect x="8" y="28" width="4" height="2"/><rect x="14" y="28" width="2" height="2"/><rect x="18" y="28" width="2" height="2"/><rect x="6" y="34" width="6" height="2"/><rect x="14" y="34" width="6" height="2"/><rect x="8" y="38" width="2" height="2"/><rect x="12" y="38" width="4" height="2"/><rect x="18" y="38" width="2" height="2"/></g></svg>