<svg xmlns="http://www.w3.org/2000/svg" xmlns:xlink="http://www.w3.org/1999/xlink" version="1.1" x="0px" y="0px" viewBox="0 0 64 80" fill='#DCDDDB' style="enable-background:new 0 0 64 64;" xml:space="preserve"><rect x="28" y="33" width="2" height="8"/><path d="M36,14H8v46h28c1.103,0,2-0.897,2-2V42h-6c0,0.552-0.447,1-1,1h-4c-0.553,0-1-0.448-1-1h-3c-1.654,0-3-1.346-3-3v-4  c0-1.654,1.346-3,3-3h3c0-0.552,0.447-1,1-1h4c0.553,0,1,0.448,1,1h6V16C38,14.897,37.103,14,36,14z"/><rect x="32" y="34" width="6" height="6"/><rect x="2" y="14" width="4" height="46"/><path d="M22,35v4c0,0.551,0.448,1,1,1h3v-6h-3C22.448,34,22,34.449,22,35z"/><path d="M14.555,5.832c-0.336,0.224-0.773,0.224-1.109,0L12,4.869V13h4V4.869L14.555,5.832z"/><path d="M46,12h2V6c0-1.103-0.897-2-2-2V12z"/><rect x="34" y="4" width="2" height="8"/><rect x="37" y="4" width="8" height="8"/><polygon points="43,19 43,57.333 46,60 49,57.333 49,19 47,19 47,31 45,31 45,19 "/><rect x="43" y="14" width="6" height="4"/><polygon points="62,7 62,4 52,4 52,60 62,60 62,57 58,57 58,55 62,55 62,53 60,53 60,51 62,51 62,49 58,49 58,47 62,47 62,45 60,45   60,43 62,43 62,41 58,41 58,39 62,39 62,37 60,37 60,35 62,35 62,33 58,33 58,31 62,31 62,29 60,29 60,27 62,27 62,25 58,25 58,23   62,23 62,21 60,21 60,19 62,19 62,17 58,17 58,15 62,15 62,13 60,13 60,11 62,11 62,9 58,9 58,7 "/></svg>